<svg width="128" height="128" viewBox="0 0 128 128" fill="none" xmlns="http://www.w3.org/2000/svg">
<rect width="128" height="128" fill="#F15854"/>
<path d="M64 128C99.3462 128 128 99.3462 128 64C128 28.6538 99.3462 0 64 0C28.6538 0 0 28.6538 0 64C0 99.3462 28.6538 128 64 128Z" fill="#F15854"/>
<path d="M35.9822 70.0622H24.64L47.3422 36.0178H58.6845L35.9822 70.0622Z" fill="#444545"/>
<path d="M58.6844 70.0622H47.3422L70.0266 36.0178H81.3688L58.6844 70.0622Z" fill="#444545"/>
<path d="M81.3688 70.0622H70.0266L92.7111 36.0178H104.071L81.3688 70.0622Z" fill="#444545"/>
<path d="M32.0533 92.9067H20.7111L43.4133 58.8622H54.7555L32.0533 92.9067Z" fill="white"/>
<path d="M54.7556 92.9067H43.4133L66.0978 58.8622H77.44L54.7556 92.9067Z" fill="white"/>
<path d="M77.44 92.9067H66.0978L88.8 58.8622H100.142L77.44 92.9067Z" fill="white"/>
</svg>
